<?xml version="1.0" standalone="no"?>
<!DOCTYPE svg PUBLIC "-//W3C//DTD SVG 20010904//EN"
 "http://www.w3.org/TR/2001/REC-SVG-20010904/DTD/svg10.dtd">
<svg version="1.0" xmlns="http://www.w3.org/2000/svg"
 width="940.000000pt" height="219.000000pt" viewBox="0 0 940.000000 219.000000"
 preserveAspectRatio="xMidYMid meet">

<g transform="translate(0.000000,219.000000) scale(0.100000,-0.100000)"
fill="#000000" stroke="none">
<path d="M928 2138 c-23 -28 -69 -82 -101 -120 l-59 -68 -311 0 c-301 0 -313
-1 -347 -21 -51 -31 -78 -67 -95 -126 -12 -42 -15 -135 -15 -539 0 -533 3
-564 59 -621 55 -54 88 -63 241 -63 92 0 140 -4 140 -11 0 -5 -33 -49 -72 -96
-114 -134 -111 -123 -35 -123 l65 0 38 46 c22 26 44 52 49 58 54 59 121 149
136 181 28 60 24 132 -9 196 -32 61 -73 93 -146 114 -71 21 -111 47 -142 94
-32 48 -41 114 -24 167 8 25 90 132 234 304 121 145 230 275 241 289 11 13 25
29 30 35 6 6 55 65 110 131 54 66 101 122 105 125 3 3 23 26 44 53 l38 47 -65
0 -65 0 -44 -52z"/>
<path d="M1023 1723 c-127 -152 -134 -164 -140 -234 -10 -107 47 -200 144
-234 97 -34 106 -39 135 -64 37 -30 68 -100 68 -149 -1 -55 -29 -108 -106
-197 -38 -44 -114 -134 -169 -200 -54 -66 -102 -122 -105 -125 -3 -3 -39 -45
-80 -95 -40 -49 -90 -108 -109 -131 -20 -22 -45 -51 -56 -65 -78 -96 -171
-205 -177 -207 -5 -2 -8 -8 -8 -13 0 -5 29 -9 64 -9 l64 0 86 104 c47 57 93
111 102 120 13 14 55 16 320 16 233 0 312 3 337 14 43 17 93 76 106 123 15 54
15 1044 0 1098 -7 23 -28 57 -53 81 -51 51 -102 64 -256 64 -61 0 -110 3 -110
6 0 5 77 101 158 197 14 16 11 17 -51 17 l-66 0 -98 -117z"/>
<path d="M9225 1728 c-3 -7 -4 -278 -3 -603 l3 -590 88 -3 87 -3 0 606 0 605
-85 0 c-59 0 -87 -4 -90 -12z"/>
<path d="M2909 1682 c-45 -40 -52 -106 -15 -149 34 -41 83 -58 122 -43 67 26
99 90 74 151 -30 73 -122 94 -181 41z"/>
<path d="M6759 1682 c-45 -40 -52 -106 -15 -149 34 -41 83 -58 122 -43 67 26
99 90 74 151 -30 73 -122 94 -181 41z"/>
<path d="M7780 1470 l0 -221 -37 37 c-20 20 -61 48 -92 63 -49 23 -69 26 -161
26 -99 0 -110 -2 -171 -32 -83 -41 -160 -121 -201 -209 -37 -78 -49 -206 -28
-295 29 -125 125 -244 240 -298 48 -23 68 -26 160 -26 123 0 178 19 248 88
l42 41 0 -57 0 -57 90 0 90 0 0 580 0 580 -90 0 -90 0 0 -220z m-167 -276
c173 -59 224 -305 91 -438 -120 -121 -325 -94 -412 53 -24 41 -27 56 -27 136
0 80 3 95 27 136 64 109 196 156 321 113z"/>
<path d="M2302 1362 c-114 -41 -176 -122 -176 -232 0 -77 25 -135 79 -176 19
-14 88 -43 152 -64 147 -47 188 -66 204 -97 17 -31 3 -69 -34 -97 -35 -26
-146 -28 -193 -3 -31 16 -78 65 -86 88 -3 8 -30 -3 -79 -31 -40 -24 -76 -44
-78 -46 -7 -6 38 -69 71 -101 18 -18 60 -45 93 -60 55 -26 69 -28 175 -27 129
0 176 15 245 75 103 90 101 263 -3 349 -26 21 -80 44 -177 75 -158 50 -189 71
-183 125 9 92 167 106 245 22 l31 -34 71 38 c39 22 71 43 71 48 0 26 -76 98
-136 127 -86 42 -207 51 -292 21z"/>
<path d="M3553 1371 c-113 -29 -221 -123 -276 -238 -61 -133 -45 -317 39 -430
90 -121 194 -174 339 -174 101 0 174 25 238 82 27 23 48 35 52 29 8 -13 -4
-136 -17 -170 -17 -45 -79 -100 -132 -115 -114 -34 -233 -10 -302 62 -24 24
-47 43 -51 41 -5 -1 -38 -20 -76 -41 l-67 -39 17 -30 c39 -67 130 -128 228
-154 59 -16 211 -18 274 -3 117 27 223 108 269 207 l27 57 3 453 3 452 -86 0
c-87 0 -90 -1 -85 -44 1 -10 -1 -29 -4 -42 -6 -24 -6 -24 -43 12 -58 59 -133
87 -233 91 -47 1 -99 -2 -117 -6z m219 -173 c51 -15 126 -82 149 -133 30 -65
26 -170 -9 -236 -64 -123 -232 -171 -361 -104 -42 21 -106 98 -119 143 -28 93
-5 200 56 266 62 66 184 94 284 64z"/>
<path d="M4649 1366 c-39 -14 -88 -46 -109 -71 -21 -25 -30 -17 -30 25 l0 41
-87 -3 -88 -3 0 -410 0 -410 87 -3 86 -3 4 268 c3 265 3 269 29 318 36 70 84
97 166 92 49 -2 68 -8 89 -27 51 -48 54 -67 54 -370 l0 -280 89 0 89 0 4 273
c3 269 3 273 28 316 36 64 69 84 143 89 52 3 67 0 96 -20 72 -48 74 -58 79
-374 l5 -284 83 0 84 0 0 299 c0 357 -3 374 -90 463 -43 44 -67 60 -109 72
-121 35 -243 13 -318 -59 l-46 -44 -41 43 c-26 26 -61 49 -91 59 -57 20 -155
21 -206 3z"/>
<path d="M5997 1359 c-80 -27 -123 -56 -189 -127 -81 -88 -102 -147 -102 -287
0 -142 21 -199 106 -290 96 -103 189 -145 324 -145 178 0 325 94 401 256 26
54 28 69 28 179 0 110 -2 125 -28 179 -55 119 -146 199 -266 236 -84 26 -196
26 -274 -1z m266 -187 c91 -49 131 -128 125 -246 -4 -95 -40 -157 -116 -203
-110 -66 -229 -51 -317 40 -55 57 -75 105 -75 182 0 73 20 123 70 177 83 91
204 110 313 50z"/>
<path d="M8423 1366 c-107 -35 -204 -123 -255 -232 -37 -78 -49 -206 -28 -295
29 -125 125 -244 240 -298 48 -23 68 -26 160 -26 123 0 178 19 248 88 l42 41
0 -57 0 -57 90 0 90 0 0 415 0 415 -90 0 -90 0 0 -55 0 -56 -37 37 c-59 60
-132 88 -238 91 -57 2 -106 -2 -132 -11z m240 -172 c173 -59 224 -305 91 -438
-120 -121 -325 -94 -412 53 -24 41 -27 56 -27 136 0 80 3 95 27 136 64 109
196 156 321 113z"/>
<path d="M2895 1347 c-3 -6 -4 -192 -3 -412 l3 -400 88 -3 87 -3 0 416 0 415
-85 0 c-59 0 -87 -4 -90 -13z"/>
<path d="M6745 1347 c-3 -6 -4 -192 -3 -412 l3 -400 88 -3 87 -3 0 416 0 415
-85 0 c-59 0 -87 -4 -90 -13z"/>
</g>
</svg>
