<?xml version="1.0" standalone="no"?>
<!DOCTYPE svg PUBLIC "-//W3C//DTD SVG 20010904//EN"
 "http://www.w3.org/TR/2001/REC-SVG-20010904/DTD/svg10.dtd">
<svg version="1.0" xmlns="http://www.w3.org/2000/svg"
 width="300.000000pt" height="112.000000pt" viewBox="0 0 300.000000 112.000000"
 preserveAspectRatio="xMidYMid meet">

<g transform="translate(0.000000,112.000000) scale(0.100000,-0.100000)"
fill="#000000" stroke="none">
<path d="M108 1047 l-107 -62 -1 -62 c0 -35 2 -63 4 -63 3 0 55 29 117 65
l111 65 92 -54 c151 -88 136 -87 136 -13 l0 63 -109 62 c-60 34 -115 62 -122
61 -8 0 -62 -28 -121 -62z"/>
<path d="M940 815 c0 -63 -2 -115 -4 -115 -3 0 -21 9 -40 21 -44 25 -136 35
-192 20 -174 -47 -241 -286 -119 -428 50 -59 108 -84 191 -84 52 0 78 5 116
25 46 24 48 24 48 6 0 -18 7 -20 60 -20 l60 0 0 345 0 345 -60 0 -60 0 0 -115z
m-82 -189 c53 -27 75 -62 80 -123 8 -100 -52 -167 -150 -167 -109 0 -182 125
-131 224 37 70 132 102 201 66z"/>
<path d="M1249 722 c-130 -67 -177 -259 -94 -384 89 -135 299 -153 423 -37
l24 21 -41 25 -42 24 -42 -20 c-90 -44 -195 -19 -228 53 l-18 41 197 5 197 5
-1 60 c-1 69 -25 123 -76 172 -47 45 -96 63 -177 63 -56 0 -79 -5 -122 -28z
m220 -106 c16 -16 31 -37 34 -47 5 -18 -2 -19 -129 -19 -148 0 -157 4 -106 55
38 38 59 45 120 42 41 -3 59 -10 81 -31z"/>
<path d="M1857 726 c-44 -22 -47 -22 -47 -5 0 16 -8 19 -60 19 l-60 0 0 -250
0 -250 60 0 60 0 0 171 0 171 29 29 c38 38 91 40 126 4 25 -24 25 -27 25 -200
l0 -175 60 0 60 0 0 149 c0 155 7 190 42 229 30 31 91 30 123 -3 25 -24 25
-27 25 -200 l0 -175 60 0 60 0 0 188 c0 175 -2 191 -22 232 -31 59 -65 82
-131 88 -64 5 -116 -10 -158 -45 -30 -26 -30 -26 -44 -6 -38 54 -133 67 -208
29z"/>
<path d="M0 565 c0 -187 7 -224 53 -273 80 -86 246 -93 337 -15 65 56 70 76
70 283 l0 180 -60 0 -60 0 0 -169 c0 -154 -2 -171 -20 -194 -47 -59 -143 -56
-181 7 -17 27 -19 51 -19 194 l0 162 -60 0 -60 0 0 -175z"/>
<path d="M2440 735 c0 -3 45 -116 101 -253 98 -241 100 -248 88 -286 -21 -63
-45 -86 -90 -86 l-39 0 0 -55 0 -55 46 0 c64 0 112 25 145 78 22 35 234 519
279 638 l10 25 -62 -3 -62 -3 -71 -172 c-39 -95 -73 -175 -76 -178 -3 -2 -37
75 -76 173 l-71 177 -61 3 c-33 2 -61 0 -61 -3z"/>
</g>
</svg>
